<svg xmlns="http://www.w3.org/2000/svg" width="512" height="512" viewBox="0 0 512 512">
  <defs>
    <linearGradient id="background" x1="48" y1="32" x2="464" y2="480" gradientUnits="userSpaceOnUse">
      <stop stop-color="#3B82F6"/>
      <stop offset="1" stop-color="#6D28D9"/>
    </linearGradient>
  </defs>
  <rect width="512" height="512" rx="112" fill="url(#background)"/>
  <path d="M111 116h161v58h-18c-8 52-28 96-59 132 24 18 53 34 86 47l-27 51c-38-16-71-36-99-58-26 21-57 40-92 56l-25-51c30-13 56-28 78-45-19-24-36-51-49-81l51-20c10 23 22 43 37 61 21-27 35-58 42-92h-86v-58Zm210 57h58l96 231h-64l-18-48h-89l-18 48h-62l97-231Zm27 65-26 68h52l-26-68Z" fill="white"/>
</svg>
